<mxfile host="app.diagrams.net" agent="Mozilla/5.0 (Macintosh; Intel Mac OS X 10.15; rv:134.0) Gecko/20100101 Firefox/134.0" modified="2025-01-30T13:49:06.669Z" version="24.4.13" etag="ExV_Noz15hpFoG3ASTgg" type="device">
  <diagram name="Page-1" id="FsFVncdp4eFvBVlV0GH4">
    <mxGraphModel dx="1193" dy="769" grid="1" gridSize="10" guides="1" tooltips="1" connect="1" arrows="1" fold="1" page="1" pageScale="1" pageWidth="1600" pageHeight="900" math="0" shadow="0">
      <root>
        <mxCell id="0" />
        <mxCell id="1" parent="0" />
        <mxCell id="icifIyGRTRH_O_66it5O-105" style="rounded=0;orthogonalLoop=1;jettySize=auto;html=1;" parent="1" edge="1">
          <mxGeometry relative="1" as="geometry">
            <mxPoint x="450" y="440" as="sourcePoint" />
            <mxPoint x="530" y="340" as="targetPoint" />
          </mxGeometry>
        </mxCell>
        <mxCell id="icifIyGRTRH_O_66it5O-112" style="rounded=0;orthogonalLoop=1;jettySize=auto;html=1;entryX=0;entryY=0.5;entryDx=0;entryDy=0;" parent="1" source="icifIyGRTRH_O_66it5O-1" target="icifIyGRTRH_O_66it5O-4" edge="1">
          <mxGeometry relative="1" as="geometry" />
        </mxCell>
        <mxCell id="icifIyGRTRH_O_66it5O-150" style="rounded=0;orthogonalLoop=1;jettySize=auto;html=1;entryX=0;entryY=0.5;entryDx=0;entryDy=0;" parent="1" source="icifIyGRTRH_O_66it5O-1" target="icifIyGRTRH_O_66it5O-116" edge="1">
          <mxGeometry relative="1" as="geometry" />
        </mxCell>
        <mxCell id="icifIyGRTRH_O_66it5O-183" style="edgeStyle=orthogonalEdgeStyle;rounded=0;orthogonalLoop=1;jettySize=auto;html=1;entryX=1;entryY=0.5;entryDx=0;entryDy=0;" parent="1" source="icifIyGRTRH_O_66it5O-1" target="icifIyGRTRH_O_66it5O-182" edge="1">
          <mxGeometry relative="1" as="geometry" />
        </mxCell>
        <mxCell id="icifIyGRTRH_O_66it5O-1" value="" style="shape=image;verticalLabelPosition=bottom;labelBackgroundColor=default;verticalAlign=top;aspect=fixed;imageAspect=0;image=https://www.svgrepo.com/show/2933/antenna.svg;" parent="1" vertex="1">
          <mxGeometry x="400" y="450" width="90" height="90" as="geometry" />
        </mxCell>
        <mxCell id="icifIyGRTRH_O_66it5O-2" value="" style="shape=image;verticalLabelPosition=bottom;labelBackgroundColor=default;verticalAlign=top;aspect=fixed;imageAspect=0;image=https://www.svgrepo.com/show/2933/antenna.svg;" parent="1" vertex="1">
          <mxGeometry x="1041" y="290" width="90" height="90" as="geometry" />
        </mxCell>
        <mxCell id="icifIyGRTRH_O_66it5O-3" value="" style="shape=image;verticalLabelPosition=bottom;labelBackgroundColor=default;verticalAlign=top;aspect=fixed;imageAspect=0;image=https://www.svgrepo.com/show/2933/antenna.svg;" parent="1" vertex="1">
          <mxGeometry x="1035" y="470" width="90" height="90" as="geometry" />
        </mxCell>
        <mxCell id="icifIyGRTRH_O_66it5O-4" value="" style="shape=image;verticalLabelPosition=bottom;labelBackgroundColor=default;verticalAlign=top;aspect=fixed;imageAspect=0;image=https://www.svgrepo.com/show/2933/antenna.svg;" parent="1" vertex="1">
          <mxGeometry x="700" y="420" width="90" height="90" as="geometry" />
        </mxCell>
        <mxCell id="icifIyGRTRH_O_66it5O-84" value="" style="group" parent="1" vertex="1" connectable="0">
          <mxGeometry x="497" y="250" width="160" height="90" as="geometry" />
        </mxCell>
        <mxCell id="icifIyGRTRH_O_66it5O-7" value="" style="rounded=0;whiteSpace=wrap;html=1;" parent="icifIyGRTRH_O_66it5O-84" vertex="1">
          <mxGeometry width="160" height="90" as="geometry" />
        </mxCell>
        <mxCell id="icifIyGRTRH_O_66it5O-8" value="" style="whiteSpace=wrap;html=1;aspect=fixed;fillColor=#000000;" parent="icifIyGRTRH_O_66it5O-84" vertex="1">
          <mxGeometry x="10" y="10" width="20" height="20" as="geometry" />
        </mxCell>
        <mxCell id="icifIyGRTRH_O_66it5O-9" value="" style="whiteSpace=wrap;html=1;aspect=fixed;fillColor=#000000;" parent="icifIyGRTRH_O_66it5O-84" vertex="1">
          <mxGeometry x="10" y="35" width="20" height="20" as="geometry" />
        </mxCell>
        <mxCell id="icifIyGRTRH_O_66it5O-10" value="" style="whiteSpace=wrap;html=1;aspect=fixed;fillColor=#000000;" parent="icifIyGRTRH_O_66it5O-84" vertex="1">
          <mxGeometry x="10" y="60" width="20" height="20" as="geometry" />
        </mxCell>
        <mxCell id="icifIyGRTRH_O_66it5O-11" value="" style="whiteSpace=wrap;html=1;aspect=fixed;fillColor=#000000;" parent="icifIyGRTRH_O_66it5O-84" vertex="1">
          <mxGeometry x="40" y="10" width="20" height="20" as="geometry" />
        </mxCell>
        <mxCell id="icifIyGRTRH_O_66it5O-12" value="" style="whiteSpace=wrap;html=1;aspect=fixed;fillColor=#000000;" parent="icifIyGRTRH_O_66it5O-84" vertex="1">
          <mxGeometry x="40" y="35" width="20" height="20" as="geometry" />
        </mxCell>
        <mxCell id="icifIyGRTRH_O_66it5O-13" value="" style="whiteSpace=wrap;html=1;aspect=fixed;fillColor=#000000;" parent="icifIyGRTRH_O_66it5O-84" vertex="1">
          <mxGeometry x="40" y="60" width="20" height="20" as="geometry" />
        </mxCell>
        <mxCell id="icifIyGRTRH_O_66it5O-14" value="" style="whiteSpace=wrap;html=1;aspect=fixed;fillColor=#000000;" parent="icifIyGRTRH_O_66it5O-84" vertex="1">
          <mxGeometry x="70" y="10" width="20" height="20" as="geometry" />
        </mxCell>
        <mxCell id="icifIyGRTRH_O_66it5O-15" value="" style="whiteSpace=wrap;html=1;aspect=fixed;fillColor=#000000;" parent="icifIyGRTRH_O_66it5O-84" vertex="1">
          <mxGeometry x="70" y="35" width="20" height="20" as="geometry" />
        </mxCell>
        <mxCell id="icifIyGRTRH_O_66it5O-16" value="" style="whiteSpace=wrap;html=1;aspect=fixed;fillColor=#000000;" parent="icifIyGRTRH_O_66it5O-84" vertex="1">
          <mxGeometry x="70" y="60" width="20" height="20" as="geometry" />
        </mxCell>
        <mxCell id="icifIyGRTRH_O_66it5O-17" value="" style="whiteSpace=wrap;html=1;aspect=fixed;fillColor=#000000;" parent="icifIyGRTRH_O_66it5O-84" vertex="1">
          <mxGeometry x="100" y="10" width="20" height="20" as="geometry" />
        </mxCell>
        <mxCell id="icifIyGRTRH_O_66it5O-18" value="" style="whiteSpace=wrap;html=1;aspect=fixed;fillColor=#000000;" parent="icifIyGRTRH_O_66it5O-84" vertex="1">
          <mxGeometry x="100" y="35" width="20" height="20" as="geometry" />
        </mxCell>
        <mxCell id="icifIyGRTRH_O_66it5O-19" value="" style="whiteSpace=wrap;html=1;aspect=fixed;fillColor=#000000;" parent="icifIyGRTRH_O_66it5O-84" vertex="1">
          <mxGeometry x="100" y="60" width="20" height="20" as="geometry" />
        </mxCell>
        <mxCell id="icifIyGRTRH_O_66it5O-32" value="" style="whiteSpace=wrap;html=1;aspect=fixed;fillColor=#000000;" parent="icifIyGRTRH_O_66it5O-84" vertex="1">
          <mxGeometry x="130" y="10" width="20" height="20" as="geometry" />
        </mxCell>
        <mxCell id="icifIyGRTRH_O_66it5O-33" value="" style="whiteSpace=wrap;html=1;aspect=fixed;fillColor=#000000;" parent="icifIyGRTRH_O_66it5O-84" vertex="1">
          <mxGeometry x="130" y="35" width="20" height="20" as="geometry" />
        </mxCell>
        <mxCell id="icifIyGRTRH_O_66it5O-34" value="" style="whiteSpace=wrap;html=1;aspect=fixed;fillColor=#000000;" parent="icifIyGRTRH_O_66it5O-84" vertex="1">
          <mxGeometry x="130" y="60" width="20" height="20" as="geometry" />
        </mxCell>
        <mxCell id="icifIyGRTRH_O_66it5O-85" value="" style="group" parent="1" vertex="1" connectable="0">
          <mxGeometry x="750" y="250" width="160" height="90" as="geometry" />
        </mxCell>
        <mxCell id="icifIyGRTRH_O_66it5O-86" value="" style="rounded=0;whiteSpace=wrap;html=1;" parent="icifIyGRTRH_O_66it5O-85" vertex="1">
          <mxGeometry width="160" height="90" as="geometry" />
        </mxCell>
        <mxCell id="icifIyGRTRH_O_66it5O-87" value="" style="whiteSpace=wrap;html=1;aspect=fixed;fillColor=#000000;" parent="icifIyGRTRH_O_66it5O-85" vertex="1">
          <mxGeometry x="10" y="10" width="20" height="20" as="geometry" />
        </mxCell>
        <mxCell id="icifIyGRTRH_O_66it5O-88" value="" style="whiteSpace=wrap;html=1;aspect=fixed;fillColor=#000000;" parent="icifIyGRTRH_O_66it5O-85" vertex="1">
          <mxGeometry x="10" y="35" width="20" height="20" as="geometry" />
        </mxCell>
        <mxCell id="icifIyGRTRH_O_66it5O-89" value="" style="whiteSpace=wrap;html=1;aspect=fixed;fillColor=#000000;" parent="icifIyGRTRH_O_66it5O-85" vertex="1">
          <mxGeometry x="10" y="60" width="20" height="20" as="geometry" />
        </mxCell>
        <mxCell id="icifIyGRTRH_O_66it5O-90" value="" style="whiteSpace=wrap;html=1;aspect=fixed;fillColor=#000000;" parent="icifIyGRTRH_O_66it5O-85" vertex="1">
          <mxGeometry x="40" y="10" width="20" height="20" as="geometry" />
        </mxCell>
        <mxCell id="icifIyGRTRH_O_66it5O-91" value="" style="whiteSpace=wrap;html=1;aspect=fixed;fillColor=#000000;" parent="icifIyGRTRH_O_66it5O-85" vertex="1">
          <mxGeometry x="40" y="35" width="20" height="20" as="geometry" />
        </mxCell>
        <mxCell id="icifIyGRTRH_O_66it5O-92" value="" style="whiteSpace=wrap;html=1;aspect=fixed;fillColor=#000000;" parent="icifIyGRTRH_O_66it5O-85" vertex="1">
          <mxGeometry x="40" y="60" width="20" height="20" as="geometry" />
        </mxCell>
        <mxCell id="icifIyGRTRH_O_66it5O-93" value="" style="whiteSpace=wrap;html=1;aspect=fixed;fillColor=#000000;" parent="icifIyGRTRH_O_66it5O-85" vertex="1">
          <mxGeometry x="70" y="10" width="20" height="20" as="geometry" />
        </mxCell>
        <mxCell id="icifIyGRTRH_O_66it5O-94" value="" style="whiteSpace=wrap;html=1;aspect=fixed;fillColor=#000000;" parent="icifIyGRTRH_O_66it5O-85" vertex="1">
          <mxGeometry x="70" y="35" width="20" height="20" as="geometry" />
        </mxCell>
        <mxCell id="icifIyGRTRH_O_66it5O-95" value="" style="whiteSpace=wrap;html=1;aspect=fixed;fillColor=#000000;" parent="icifIyGRTRH_O_66it5O-85" vertex="1">
          <mxGeometry x="70" y="60" width="20" height="20" as="geometry" />
        </mxCell>
        <mxCell id="icifIyGRTRH_O_66it5O-96" value="" style="whiteSpace=wrap;html=1;aspect=fixed;fillColor=#000000;" parent="icifIyGRTRH_O_66it5O-85" vertex="1">
          <mxGeometry x="100" y="10" width="20" height="20" as="geometry" />
        </mxCell>
        <mxCell id="icifIyGRTRH_O_66it5O-97" value="" style="whiteSpace=wrap;html=1;aspect=fixed;fillColor=#000000;" parent="icifIyGRTRH_O_66it5O-85" vertex="1">
          <mxGeometry x="100" y="35" width="20" height="20" as="geometry" />
        </mxCell>
        <mxCell id="icifIyGRTRH_O_66it5O-98" value="" style="whiteSpace=wrap;html=1;aspect=fixed;fillColor=#000000;" parent="icifIyGRTRH_O_66it5O-85" vertex="1">
          <mxGeometry x="100" y="60" width="20" height="20" as="geometry" />
        </mxCell>
        <mxCell id="icifIyGRTRH_O_66it5O-99" value="" style="whiteSpace=wrap;html=1;aspect=fixed;fillColor=#000000;" parent="icifIyGRTRH_O_66it5O-85" vertex="1">
          <mxGeometry x="130" y="10" width="20" height="20" as="geometry" />
        </mxCell>
        <mxCell id="icifIyGRTRH_O_66it5O-100" value="" style="whiteSpace=wrap;html=1;aspect=fixed;fillColor=#000000;" parent="icifIyGRTRH_O_66it5O-85" vertex="1">
          <mxGeometry x="130" y="35" width="20" height="20" as="geometry" />
        </mxCell>
        <mxCell id="icifIyGRTRH_O_66it5O-101" value="" style="whiteSpace=wrap;html=1;aspect=fixed;fillColor=#000000;" parent="icifIyGRTRH_O_66it5O-85" vertex="1">
          <mxGeometry x="130" y="60" width="20" height="20" as="geometry" />
        </mxCell>
        <mxCell id="icifIyGRTRH_O_66it5O-102" value="Alice" style="text;html=1;align=center;verticalAlign=middle;resizable=0;points=[];autosize=1;strokeColor=none;fillColor=none;" parent="1" vertex="1">
          <mxGeometry x="420" y="540" width="50" height="30" as="geometry" />
        </mxCell>
        <mxCell id="icifIyGRTRH_O_66it5O-109" style="edgeStyle=orthogonalEdgeStyle;rounded=0;orthogonalLoop=1;jettySize=auto;html=1;entryX=0;entryY=0.5;entryDx=0;entryDy=0;" parent="1" source="icifIyGRTRH_O_66it5O-7" target="icifIyGRTRH_O_66it5O-86" edge="1">
          <mxGeometry relative="1" as="geometry" />
        </mxCell>
        <mxCell id="icifIyGRTRH_O_66it5O-110" style="rounded=0;orthogonalLoop=1;jettySize=auto;html=1;" parent="1" source="icifIyGRTRH_O_66it5O-86" target="icifIyGRTRH_O_66it5O-2" edge="1">
          <mxGeometry relative="1" as="geometry" />
        </mxCell>
        <mxCell id="icifIyGRTRH_O_66it5O-111" style="rounded=0;orthogonalLoop=1;jettySize=auto;html=1;entryX=0;entryY=0.5;entryDx=0;entryDy=0;" parent="1" source="icifIyGRTRH_O_66it5O-86" target="icifIyGRTRH_O_66it5O-3" edge="1">
          <mxGeometry relative="1" as="geometry" />
        </mxCell>
        <mxCell id="icifIyGRTRH_O_66it5O-113" style="rounded=0;orthogonalLoop=1;jettySize=auto;html=1;entryX=0.25;entryY=0;entryDx=0;entryDy=0;" parent="1" source="icifIyGRTRH_O_66it5O-7" target="icifIyGRTRH_O_66it5O-4" edge="1">
          <mxGeometry relative="1" as="geometry" />
        </mxCell>
        <mxCell id="icifIyGRTRH_O_66it5O-114" style="rounded=0;orthogonalLoop=1;jettySize=auto;html=1;entryX=0.833;entryY=-0.033;entryDx=0;entryDy=0;entryPerimeter=0;" parent="1" source="icifIyGRTRH_O_66it5O-86" target="icifIyGRTRH_O_66it5O-4" edge="1">
          <mxGeometry relative="1" as="geometry" />
        </mxCell>
        <mxCell id="icifIyGRTRH_O_66it5O-115" value="" style="group" parent="1" vertex="1" connectable="0">
          <mxGeometry x="554" y="597" width="160" height="90" as="geometry" />
        </mxCell>
        <mxCell id="icifIyGRTRH_O_66it5O-116" value="" style="rounded=0;whiteSpace=wrap;html=1;" parent="icifIyGRTRH_O_66it5O-115" vertex="1">
          <mxGeometry width="160" height="90" as="geometry" />
        </mxCell>
        <mxCell id="icifIyGRTRH_O_66it5O-117" value="" style="whiteSpace=wrap;html=1;aspect=fixed;fillColor=#000000;" parent="icifIyGRTRH_O_66it5O-115" vertex="1">
          <mxGeometry x="10" y="10" width="20" height="20" as="geometry" />
        </mxCell>
        <mxCell id="icifIyGRTRH_O_66it5O-118" value="" style="whiteSpace=wrap;html=1;aspect=fixed;fillColor=#000000;" parent="icifIyGRTRH_O_66it5O-115" vertex="1">
          <mxGeometry x="10" y="35" width="20" height="20" as="geometry" />
        </mxCell>
        <mxCell id="icifIyGRTRH_O_66it5O-119" value="" style="whiteSpace=wrap;html=1;aspect=fixed;fillColor=#000000;" parent="icifIyGRTRH_O_66it5O-115" vertex="1">
          <mxGeometry x="10" y="60" width="20" height="20" as="geometry" />
        </mxCell>
        <mxCell id="icifIyGRTRH_O_66it5O-120" value="" style="whiteSpace=wrap;html=1;aspect=fixed;fillColor=#000000;" parent="icifIyGRTRH_O_66it5O-115" vertex="1">
          <mxGeometry x="40" y="10" width="20" height="20" as="geometry" />
        </mxCell>
        <mxCell id="icifIyGRTRH_O_66it5O-121" value="" style="whiteSpace=wrap;html=1;aspect=fixed;fillColor=#000000;" parent="icifIyGRTRH_O_66it5O-115" vertex="1">
          <mxGeometry x="40" y="35" width="20" height="20" as="geometry" />
        </mxCell>
        <mxCell id="icifIyGRTRH_O_66it5O-122" value="" style="whiteSpace=wrap;html=1;aspect=fixed;fillColor=#000000;" parent="icifIyGRTRH_O_66it5O-115" vertex="1">
          <mxGeometry x="40" y="60" width="20" height="20" as="geometry" />
        </mxCell>
        <mxCell id="icifIyGRTRH_O_66it5O-123" value="" style="whiteSpace=wrap;html=1;aspect=fixed;fillColor=#000000;" parent="icifIyGRTRH_O_66it5O-115" vertex="1">
          <mxGeometry x="70" y="10" width="20" height="20" as="geometry" />
        </mxCell>
        <mxCell id="icifIyGRTRH_O_66it5O-124" value="" style="whiteSpace=wrap;html=1;aspect=fixed;fillColor=#000000;" parent="icifIyGRTRH_O_66it5O-115" vertex="1">
          <mxGeometry x="70" y="35" width="20" height="20" as="geometry" />
        </mxCell>
        <mxCell id="icifIyGRTRH_O_66it5O-125" value="" style="whiteSpace=wrap;html=1;aspect=fixed;fillColor=#000000;" parent="icifIyGRTRH_O_66it5O-115" vertex="1">
          <mxGeometry x="70" y="60" width="20" height="20" as="geometry" />
        </mxCell>
        <mxCell id="icifIyGRTRH_O_66it5O-126" value="" style="whiteSpace=wrap;html=1;aspect=fixed;fillColor=#000000;" parent="icifIyGRTRH_O_66it5O-115" vertex="1">
          <mxGeometry x="100" y="10" width="20" height="20" as="geometry" />
        </mxCell>
        <mxCell id="icifIyGRTRH_O_66it5O-127" value="" style="whiteSpace=wrap;html=1;aspect=fixed;fillColor=#000000;" parent="icifIyGRTRH_O_66it5O-115" vertex="1">
          <mxGeometry x="100" y="35" width="20" height="20" as="geometry" />
        </mxCell>
        <mxCell id="icifIyGRTRH_O_66it5O-128" value="" style="whiteSpace=wrap;html=1;aspect=fixed;fillColor=#000000;" parent="icifIyGRTRH_O_66it5O-115" vertex="1">
          <mxGeometry x="100" y="60" width="20" height="20" as="geometry" />
        </mxCell>
        <mxCell id="icifIyGRTRH_O_66it5O-129" value="" style="whiteSpace=wrap;html=1;aspect=fixed;fillColor=#000000;" parent="icifIyGRTRH_O_66it5O-115" vertex="1">
          <mxGeometry x="130" y="10" width="20" height="20" as="geometry" />
        </mxCell>
        <mxCell id="icifIyGRTRH_O_66it5O-130" value="" style="whiteSpace=wrap;html=1;aspect=fixed;fillColor=#000000;" parent="icifIyGRTRH_O_66it5O-115" vertex="1">
          <mxGeometry x="130" y="35" width="20" height="20" as="geometry" />
        </mxCell>
        <mxCell id="icifIyGRTRH_O_66it5O-131" value="" style="whiteSpace=wrap;html=1;aspect=fixed;fillColor=#000000;" parent="icifIyGRTRH_O_66it5O-115" vertex="1">
          <mxGeometry x="130" y="60" width="20" height="20" as="geometry" />
        </mxCell>
        <mxCell id="icifIyGRTRH_O_66it5O-132" value="" style="group" parent="1" vertex="1" connectable="0">
          <mxGeometry x="807" y="597" width="160" height="90" as="geometry" />
        </mxCell>
        <mxCell id="icifIyGRTRH_O_66it5O-133" value="" style="rounded=0;whiteSpace=wrap;html=1;" parent="icifIyGRTRH_O_66it5O-132" vertex="1">
          <mxGeometry width="160" height="90" as="geometry" />
        </mxCell>
        <mxCell id="icifIyGRTRH_O_66it5O-134" value="" style="whiteSpace=wrap;html=1;aspect=fixed;fillColor=#000000;" parent="icifIyGRTRH_O_66it5O-132" vertex="1">
          <mxGeometry x="10" y="10" width="20" height="20" as="geometry" />
        </mxCell>
        <mxCell id="icifIyGRTRH_O_66it5O-135" value="" style="whiteSpace=wrap;html=1;aspect=fixed;fillColor=#000000;" parent="icifIyGRTRH_O_66it5O-132" vertex="1">
          <mxGeometry x="10" y="35" width="20" height="20" as="geometry" />
        </mxCell>
        <mxCell id="icifIyGRTRH_O_66it5O-136" value="" style="whiteSpace=wrap;html=1;aspect=fixed;fillColor=#000000;" parent="icifIyGRTRH_O_66it5O-132" vertex="1">
          <mxGeometry x="10" y="60" width="20" height="20" as="geometry" />
        </mxCell>
        <mxCell id="icifIyGRTRH_O_66it5O-137" value="" style="whiteSpace=wrap;html=1;aspect=fixed;fillColor=#000000;" parent="icifIyGRTRH_O_66it5O-132" vertex="1">
          <mxGeometry x="40" y="10" width="20" height="20" as="geometry" />
        </mxCell>
        <mxCell id="icifIyGRTRH_O_66it5O-138" value="" style="whiteSpace=wrap;html=1;aspect=fixed;fillColor=#000000;" parent="icifIyGRTRH_O_66it5O-132" vertex="1">
          <mxGeometry x="40" y="35" width="20" height="20" as="geometry" />
        </mxCell>
        <mxCell id="icifIyGRTRH_O_66it5O-139" value="" style="whiteSpace=wrap;html=1;aspect=fixed;fillColor=#000000;" parent="icifIyGRTRH_O_66it5O-132" vertex="1">
          <mxGeometry x="40" y="60" width="20" height="20" as="geometry" />
        </mxCell>
        <mxCell id="icifIyGRTRH_O_66it5O-140" value="" style="whiteSpace=wrap;html=1;aspect=fixed;fillColor=#000000;" parent="icifIyGRTRH_O_66it5O-132" vertex="1">
          <mxGeometry x="70" y="10" width="20" height="20" as="geometry" />
        </mxCell>
        <mxCell id="icifIyGRTRH_O_66it5O-141" value="" style="whiteSpace=wrap;html=1;aspect=fixed;fillColor=#000000;" parent="icifIyGRTRH_O_66it5O-132" vertex="1">
          <mxGeometry x="70" y="35" width="20" height="20" as="geometry" />
        </mxCell>
        <mxCell id="icifIyGRTRH_O_66it5O-142" value="" style="whiteSpace=wrap;html=1;aspect=fixed;fillColor=#000000;" parent="icifIyGRTRH_O_66it5O-132" vertex="1">
          <mxGeometry x="70" y="60" width="20" height="20" as="geometry" />
        </mxCell>
        <mxCell id="icifIyGRTRH_O_66it5O-143" value="" style="whiteSpace=wrap;html=1;aspect=fixed;fillColor=#000000;" parent="icifIyGRTRH_O_66it5O-132" vertex="1">
          <mxGeometry x="100" y="10" width="20" height="20" as="geometry" />
        </mxCell>
        <mxCell id="icifIyGRTRH_O_66it5O-144" value="" style="whiteSpace=wrap;html=1;aspect=fixed;fillColor=#000000;" parent="icifIyGRTRH_O_66it5O-132" vertex="1">
          <mxGeometry x="100" y="35" width="20" height="20" as="geometry" />
        </mxCell>
        <mxCell id="icifIyGRTRH_O_66it5O-145" value="" style="whiteSpace=wrap;html=1;aspect=fixed;fillColor=#000000;" parent="icifIyGRTRH_O_66it5O-132" vertex="1">
          <mxGeometry x="100" y="60" width="20" height="20" as="geometry" />
        </mxCell>
        <mxCell id="icifIyGRTRH_O_66it5O-146" value="" style="whiteSpace=wrap;html=1;aspect=fixed;fillColor=#000000;" parent="icifIyGRTRH_O_66it5O-132" vertex="1">
          <mxGeometry x="130" y="10" width="20" height="20" as="geometry" />
        </mxCell>
        <mxCell id="icifIyGRTRH_O_66it5O-147" value="" style="whiteSpace=wrap;html=1;aspect=fixed;fillColor=#000000;" parent="icifIyGRTRH_O_66it5O-132" vertex="1">
          <mxGeometry x="130" y="35" width="20" height="20" as="geometry" />
        </mxCell>
        <mxCell id="icifIyGRTRH_O_66it5O-148" value="" style="whiteSpace=wrap;html=1;aspect=fixed;fillColor=#000000;" parent="icifIyGRTRH_O_66it5O-132" vertex="1">
          <mxGeometry x="130" y="60" width="20" height="20" as="geometry" />
        </mxCell>
        <mxCell id="icifIyGRTRH_O_66it5O-149" style="edgeStyle=orthogonalEdgeStyle;rounded=0;orthogonalLoop=1;jettySize=auto;html=1;entryX=0;entryY=0.5;entryDx=0;entryDy=0;" parent="1" source="icifIyGRTRH_O_66it5O-116" target="icifIyGRTRH_O_66it5O-133" edge="1">
          <mxGeometry relative="1" as="geometry" />
        </mxCell>
        <mxCell id="icifIyGRTRH_O_66it5O-151" style="rounded=0;orthogonalLoop=1;jettySize=auto;html=1;entryX=0;entryY=0.75;entryDx=0;entryDy=0;" parent="1" source="icifIyGRTRH_O_66it5O-133" target="icifIyGRTRH_O_66it5O-3" edge="1">
          <mxGeometry relative="1" as="geometry" />
        </mxCell>
        <mxCell id="icifIyGRTRH_O_66it5O-153" style="rounded=0;orthogonalLoop=1;jettySize=auto;html=1;entryX=-0.011;entryY=0.678;entryDx=0;entryDy=0;entryPerimeter=0;" parent="1" source="icifIyGRTRH_O_66it5O-133" target="icifIyGRTRH_O_66it5O-2" edge="1">
          <mxGeometry relative="1" as="geometry" />
        </mxCell>
        <mxCell id="icifIyGRTRH_O_66it5O-154" style="rounded=0;orthogonalLoop=1;jettySize=auto;html=1;entryX=0.25;entryY=1;entryDx=0;entryDy=0;" parent="1" source="icifIyGRTRH_O_66it5O-116" target="icifIyGRTRH_O_66it5O-4" edge="1">
          <mxGeometry relative="1" as="geometry" />
        </mxCell>
        <mxCell id="icifIyGRTRH_O_66it5O-155" style="rounded=0;orthogonalLoop=1;jettySize=auto;html=1;entryX=0.75;entryY=1;entryDx=0;entryDy=0;" parent="1" source="icifIyGRTRH_O_66it5O-133" target="icifIyGRTRH_O_66it5O-4" edge="1">
          <mxGeometry relative="1" as="geometry" />
        </mxCell>
        <mxCell id="icifIyGRTRH_O_66it5O-157" value="P1" style="text;html=1;align=center;verticalAlign=middle;resizable=0;points=[];autosize=1;strokeColor=none;fillColor=none;" parent="1" vertex="1">
          <mxGeometry x="554" y="220" width="40" height="30" as="geometry" />
        </mxCell>
        <mxCell id="icifIyGRTRH_O_66it5O-158" value="P2" style="text;html=1;align=center;verticalAlign=middle;resizable=0;points=[];autosize=1;strokeColor=none;fillColor=none;" parent="1" vertex="1">
          <mxGeometry x="810" y="220" width="40" height="30" as="geometry" />
        </mxCell>
        <mxCell id="icifIyGRTRH_O_66it5O-159" value="Eve" style="text;html=1;align=center;verticalAlign=middle;resizable=0;points=[];autosize=1;strokeColor=none;fillColor=none;" parent="1" vertex="1">
          <mxGeometry x="725" y="510" width="40" height="30" as="geometry" />
        </mxCell>
        <mxCell id="icifIyGRTRH_O_66it5O-160" value="Bob" style="text;html=1;align=center;verticalAlign=middle;resizable=0;points=[];autosize=1;strokeColor=none;fillColor=none;" parent="1" vertex="1">
          <mxGeometry x="1060" y="388" width="40" height="30" as="geometry" />
        </mxCell>
        <mxCell id="icifIyGRTRH_O_66it5O-161" value="Charlie" style="text;html=1;align=center;verticalAlign=middle;resizable=0;points=[];autosize=1;strokeColor=none;fillColor=none;" parent="1" vertex="1">
          <mxGeometry x="1056" y="567" width="60" height="30" as="geometry" />
        </mxCell>
        <mxCell id="icifIyGRTRH_O_66it5O-162" value="P3" style="text;html=1;align=center;verticalAlign=middle;resizable=0;points=[];autosize=1;strokeColor=none;fillColor=none;" parent="1" vertex="1">
          <mxGeometry x="601" y="688" width="40" height="30" as="geometry" />
        </mxCell>
        <mxCell id="icifIyGRTRH_O_66it5O-163" value="&lt;div&gt;P4&lt;/div&gt;" style="text;html=1;align=center;verticalAlign=middle;resizable=0;points=[];autosize=1;strokeColor=none;fillColor=none;" parent="1" vertex="1">
          <mxGeometry x="871" y="688" width="40" height="30" as="geometry" />
        </mxCell>
        <mxCell id="icifIyGRTRH_O_66it5O-164" value="H1" style="text;html=1;align=center;verticalAlign=middle;resizable=0;points=[];autosize=1;strokeColor=none;fillColor=none;" parent="1" vertex="1">
          <mxGeometry x="441" y="368" width="40" height="30" as="geometry" />
        </mxCell>
        <mxCell id="icifIyGRTRH_O_66it5O-165" value="H3" style="text;html=1;align=center;verticalAlign=middle;resizable=0;points=[];autosize=1;strokeColor=none;fillColor=none;" parent="1" vertex="1">
          <mxGeometry x="481" y="598" width="40" height="30" as="geometry" />
        </mxCell>
        <mxCell id="icifIyGRTRH_O_66it5O-166" value="G21" style="text;html=1;align=center;verticalAlign=middle;resizable=0;points=[];autosize=1;strokeColor=none;fillColor=none;" parent="1" vertex="1">
          <mxGeometry x="950" y="290" width="50" height="30" as="geometry" />
        </mxCell>
        <mxCell id="icifIyGRTRH_O_66it5O-167" value="G42" style="text;html=1;align=center;verticalAlign=middle;resizable=0;points=[];autosize=1;strokeColor=none;fillColor=none;" parent="1" vertex="1">
          <mxGeometry x="976" y="568" width="50" height="30" as="geometry" />
        </mxCell>
        <mxCell id="icifIyGRTRH_O_66it5O-168" value="G41" style="text;html=1;align=center;verticalAlign=middle;resizable=0;points=[];autosize=1;strokeColor=none;fillColor=none;" parent="1" vertex="1">
          <mxGeometry x="890" y="537" width="50" height="30" as="geometry" />
        </mxCell>
        <mxCell id="icifIyGRTRH_O_66it5O-169" value="G22" style="text;html=1;align=center;verticalAlign=middle;resizable=0;points=[];autosize=1;strokeColor=none;fillColor=none;" parent="1" vertex="1">
          <mxGeometry x="900" y="358" width="50" height="30" as="geometry" />
        </mxCell>
        <mxCell id="icifIyGRTRH_O_66it5O-170" value="B" style="text;html=1;align=center;verticalAlign=middle;resizable=0;points=[];autosize=1;strokeColor=none;fillColor=none;" parent="1" vertex="1">
          <mxGeometry x="556" y="448" width="30" height="30" as="geometry" />
        </mxCell>
        <mxCell id="icifIyGRTRH_O_66it5O-171" value="F1" style="text;html=1;align=center;verticalAlign=middle;resizable=0;points=[];autosize=1;strokeColor=none;fillColor=none;" parent="1" vertex="1">
          <mxGeometry x="620" y="368" width="40" height="30" as="geometry" />
        </mxCell>
        <mxCell id="icifIyGRTRH_O_66it5O-172" value="F2" style="text;html=1;align=center;verticalAlign=middle;resizable=0;points=[];autosize=1;strokeColor=none;fillColor=none;" parent="1" vertex="1">
          <mxGeometry x="790" y="368" width="40" height="30" as="geometry" />
        </mxCell>
        <mxCell id="icifIyGRTRH_O_66it5O-173" value="F3" style="text;html=1;align=center;verticalAlign=middle;resizable=0;points=[];autosize=1;strokeColor=none;fillColor=none;" parent="1" vertex="1">
          <mxGeometry x="800" y="530" width="40" height="30" as="geometry" />
        </mxCell>
        <mxCell id="icifIyGRTRH_O_66it5O-174" value="F4" style="text;html=1;align=center;verticalAlign=middle;resizable=0;points=[];autosize=1;strokeColor=none;fillColor=none;" parent="1" vertex="1">
          <mxGeometry x="651" y="528" width="40" height="30" as="geometry" />
        </mxCell>
        <mxCell id="icifIyGRTRH_O_66it5O-182" value="" style="shape=image;verticalLabelPosition=bottom;labelBackgroundColor=default;verticalAlign=top;aspect=fixed;imageAspect=0;image=https://www.svgrepo.com/show/2933/antenna.svg;" parent="1" vertex="1">
          <mxGeometry x="220" y="450" width="90" height="90" as="geometry" />
        </mxCell>
        <mxCell id="icifIyGRTRH_O_66it5O-184" value="Frank" style="text;html=1;align=center;verticalAlign=middle;resizable=0;points=[];autosize=1;strokeColor=none;fillColor=none;" parent="1" vertex="1">
          <mxGeometry x="240" y="548" width="50" height="30" as="geometry" />
        </mxCell>
        <mxCell id="icifIyGRTRH_O_66it5O-186" value="C1" style="text;html=1;align=center;verticalAlign=middle;resizable=0;points=[];autosize=1;strokeColor=none;fillColor=none;" parent="1" vertex="1">
          <mxGeometry x="674" y="270" width="40" height="30" as="geometry" />
        </mxCell>
        <mxCell id="icifIyGRTRH_O_66it5O-187" value="C3" style="text;html=1;align=center;verticalAlign=middle;resizable=0;points=[];autosize=1;strokeColor=none;fillColor=none;" parent="1" vertex="1">
          <mxGeometry x="741" y="638" width="40" height="30" as="geometry" />
        </mxCell>
      </root>
    </mxGraphModel>
  </diagram>
</mxfile>
